<svg width="50" height="48" viewBox="0 0 50 48" fill="none" xmlns="http://www.w3.org/2000/svg">
<g opacity="0.9">
<path fill-rule="evenodd" clip-rule="evenodd" d="M26.25 0C17.5 0 9.75 4.8 5.75 12.1263L0 6.31579V22.7368H16.25L9.25 15.6632C12.5 9.34737 18.75 5.05263 26.25 5.05263C36.5 5.05263 45 13.6421 45 24C45 34.3579 36.5 42.9474 26.25 42.9474C18 42.9474 11.25 37.6421 8.5 30.3158H3.25C6 40.4211 15.25 48 26.25 48C39.5 48 50 37.1368 50 24C50 10.8632 39.25 0 26.25 0ZM22.5 12.6316V25.5158L34.25 32.5895L36.25 29.3053L26.25 23.2421V12.6316H22.5Z" fill="#D9D9D9"/>
</g>
</svg>
