<svg width="49" height="49" viewBox="0 0 49 49" fill="none" xmlns="http://www.w3.org/2000/svg">
<path d="M36.4713 30.5379L36.4781 30.5282L36.4845 30.5182C38.4083 27.4914 39.5375 23.899 39.5375 20.0375C39.5375 9.2495 30.8018 0.5 20.025 0.5C9.23593 0.5 0.5 9.24929 0.5 20.0375C0.5 30.8255 9.23572 39.575 20.0125 39.575C23.9247 39.575 27.5686 38.4203 30.6216 36.4448L30.6287 36.4402L30.6355 36.4355C30.936 36.2264 31.3431 36.2627 31.6019 36.5215L42.2896 47.2092C43.6673 48.5869 45.904 48.577 47.2695 47.1873C48.6176 45.8152 48.6084 43.6131 47.2488 42.2523L36.5584 31.552C36.2867 31.2801 36.25 30.8522 36.4713 30.5379ZM30.3214 9.75355C33.0651 12.4972 34.575 16.145 34.575 20.025C34.575 23.905 33.0651 27.5528 30.3214 30.2964C27.5778 33.0401 23.93 34.55 20.05 34.55C16.17 34.55 12.5222 33.0401 9.77855 30.2964C7.03489 27.5528 5.525 23.905 5.525 20.025C5.525 16.145 7.03489 12.4972 9.77855 9.75355C12.5222 7.00989 16.17 5.5 20.05 5.5C23.93 5.5 27.5778 7.00989 30.3214 9.75355Z" fill="#D9D9D9" stroke="#D9D9D9"/>
</svg>
