<svg width="50" height="50" viewBox="0 0 50 50" fill="none" xmlns="http://www.w3.org/2000/svg">
<path d="M47.7519 30L45.0752 28.5417C42.1755 26.875 42.1755 22.9167 45.0752 21.25L47.7519 19.7917C49.9825 18.5417 50.6517 16.0417 49.3133 14.1667L47.0827 10.625C45.7444 8.54167 43.0677 7.91667 41.0602 9.16667L38.3835 10.625C35.4837 12.2917 31.6917 10.2083 31.6917 7.08333V4.16667C31.6917 1.875 29.6842 0 27.2306 0H22.7694C20.3158 0 18.3083 1.875 18.3083 4.16667V6.875C18.3083 10 14.5163 12.0833 11.6165 10.4167L8.93983 9.16667C6.70925 7.91667 4.03256 8.75 2.91727 10.625L0.686689 14.1667C-0.4286 16.25 0.240573 18.75 2.24809 20L4.92479 21.4583C7.82454 22.9167 7.82454 27.0833 4.92479 28.5417L2.24809 30C0.0175152 31.25 -0.651658 33.75 0.686689 35.625L2.91727 39.1667C4.25562 41.25 6.93231 41.875 8.93983 40.625L11.6165 39.375C14.5163 37.7083 18.3083 39.7917 18.3083 42.9167V45.8333C18.3083 48.125 20.3158 50 22.7694 50H27.2306C29.6842 50 31.6917 48.125 31.6917 45.8333V43.125C31.6917 40 35.4837 37.9167 38.3835 39.5833L41.0602 41.0417C43.2907 42.2917 45.9674 41.4583 47.0827 39.5833L49.3133 36.0417C50.4286 33.75 49.7594 31.25 47.7519 30ZM25 33.3333C20.0927 33.3333 16.0777 29.5833 16.0777 25C16.0777 20.4167 20.0927 16.6667 25 16.6667C29.9073 16.6667 33.9223 20.4167 33.9223 25C33.9223 29.5833 29.9073 33.3333 25 33.3333Z" fill="#D9D9D9" fill-opacity="0.866667"/>
</svg>
